# xmcd
#
# Track frame offsets:
# 150
# 3583
# 19982
# 38405
# 56820
# 75756
# 99302
# 119421
# 132237
# 154077
# 171757
# 187014
# 206675
# 234100
# 250816
# 272383
# 289967
#
# Disc length: 4479 seconds
#
#
# Revision: 4
# Processed by: cddbd v1.5.1PL2 Copyright (c) Steve Scherf et al.
# Submitted via: FreeRIP 2.944 
#
DISCID=da117d11
DTITLE=SFDK - 2005
DYEAR=2005
DGENRE=Rap
TTITLE0=Intro
TTITLE1=2005
TTITLE2=Diana Fácil
TTITLE3=Bailes de Salón
TTITLE4=¿Yo qué hago aquí?
TTITLE5=$ and ?
TTITLE6=La habitación que más me gusta de mi keli
TTITLE7=Interludio
TTITLE8=El niño güei
TTITLE9=En la oscuridad
TTITLE10=Ojos tristes
TTITLE11=No eres feo ni ná
TTITLE12=Esta canción va dedicada. parte 2
TTITLE13=Abuchea!!
TTITLE14=Fumar cagando
TTITLE15=Hoy no
TTITLE16=Crossover
EXTD=YEAR: 2005
EXTT0=
EXTT1=
EXTT2=
EXTT3=
EXTT4=
EXTT5=
EXTT6=
EXTT7=
EXTT8=
EXTT9=
EXTT10=
EXTT11=
EXTT12=
EXTT13=
EXTT14=
EXTT15=
EXTT16=
PLAYORDER=
